 <svg  version="1.0" xmlns="http://www.w3.org/2000/svg"  width="351.000000pt" height="339.000000pt" viewBox="0 0 351.000000 339.000000"  preserveAspectRatio="xMidYMid meet">  <g transform="translate(0.000000,339.000000) scale(0.050000,-0.050000)" fill="#deddda" stroke="none"> <path d="M3260 6407 c-162 -20 -491 -93 -625 -139 -1448 -490 -2318 -1964 -2038 -3448 478 -2525 3637 -3374 5324 -1430 222 256 268 377 169 442 -78 51 -134 22 -245 -127 -113 -150 -361 -425 -385 -425 -8 0 -21 63 -29 140 -59 604 -431 1123 -998 1392 -183 87 -182 82 -38 196 804 631 477 1969 -532 2181 -1269 267 -2071 -1397 -1055 -2191 126 -99 126 -102 -48 -179 -543 -239 -931 -767 -997 -1356 -10 -91 -23 -169 -28 -174 -7 -8 -259 251 -348 358 -206 246 -417 681 -505 1041 -534 2166 1511 4032 3636 3319 1032 -347 1805 -1364 1856 -2445 13 -275 34 -322 145 -322 136 0 161 104 112 471 -180 1361 -1100 2366 -2424 2649 -193 42 -766 70 -947 47z m602 -1484 c403 -105 693 -462 725 -893 65 -875 -1003 -1387 -1650 -791 -767 706 -85 1948 925 1684z m184 -2243 c660 -146 1133 -744 1134 -1434 0 -177 -2 -185 -55 -222 -66 -46 -386 -208 -485 -245 -38 -14 -79 -32 -90 -41 -11 -8 -92 -33 -180 -55 -762 -193 -1404 -122 -2100 231 -261 133 -250 117 -250 358 0 994 941 1648 2026 1408z"/> <path d="M6336 2675 c-77 -62 -97 -238 -32 -284 106 -74 210 -6 231 151 17 128 -104 209 -199 133z"/> </g> </svg> 