 <svg  version="1.0" xmlns="http://www.w3.org/2000/svg"  width="300.000000pt" height="300.000000pt" viewBox="0 0 300.000000 300.000000"  preserveAspectRatio="xMidYMid meet">  <g transform="translate(0.000000,300.000000) scale(0.100000,-0.100000)" fill="#01f1dd" stroke="none"> <path d="M1405 2161 c-243 -40 -444 -200 -530 -425 l-24 -61 -1 68 0 67 -40 0 -40 0 2 -117 2 -118 3 113 4 112 29 0 30 0 0 -100 c0 -94 2 -103 25 -125 16 -17 35 -25 57 -24 18 0 27 3 21 6 -21 8 -15 29 13 42 34 15 42 7 19 -19 -21 -24 -14 -27 9 -4 13 12 16 41 16 155 l0 139 30 0 30 0 0 -145 c0 -167 -8 -192 -66 -220 -26 -12 -52 -16 -92 -13 -48 4 -60 10 -89 41 -18 20 -33 32 -33 26 0 -5 11 -20 23 -33 31 -30 38 -76 47 -301 l7 -180 -1 173 -1 172 33 0 c19 0 31 4 27 10 -3 5 0 7 8 4 7 -2 14 -10 14 -17 0 -7 29 -55 64 -107 l64 -95 3 103 3 102 34 0 35 0 0 -165 0 -166 28 -24 c22 -19 25 -27 16 -41 -6 -10 -15 -19 -20 -21 -15 -5 -144 96 -144 113 0 10 8 7 26 -13 l25 -28 -22 32 c-12 17 -27 29 -34 27 -15 -6 -49 39 -59 76 l-7 25 18 -24 c61 -84 61 -68 1 18 l-38 54 0 -50 c0 -40 6 -59 31 -94 82 -115 201 -202 333 -245 67 -22 100 -27 196 -27 176 -1 303 43 437 152 48 39 71 51 105 54 28 3 21 4 -18 3 -69 -1 -84 8 -84 52 l0 29 70 -5 c60 -4 71 -2 76 13 11 28 -9 48 -59 60 -72 16 -90 37 -85 97 8 74 30 92 123 96 58 3 75 1 75 -9 0 -8 3 -24 6 -36 6 -20 2 -23 -27 -24 -25 -1 -28 -3 -11 -6 19 -4 23 -9 18 -26 -3 -12 -6 -25 -6 -28 0 -3 -12 -5 -27 -2 -21 2 -18 -1 12 -12 53 -21 58 -27 66 -83 l6 -47 2 42 c1 31 -5 49 -23 70 -23 27 -23 31 -10 68 20 57 37 200 30 241 l-7 34 40 0 40 0 3 76 3 76 83 -121 83 -121 42 2 42 1 -40 4 c-39 4 -43 8 -125 128 -47 69 -88 125 -92 125 -5 0 -8 -36 -8 -80 l0 -80 -34 0 c-33 0 -34 1 -45 58 -46 227 -225 425 -452 497 -84 26 -217 38 -294 26z m-5 -36 c0 -5 -67 -35 -77 -35 -18 0 23 30 45 33 15 2 28 5 30 6 1 0 2 -1 2 -4z m25 -28 c-35 -26 -50 -41 -87 -86 -29 -34 -60 -39 -66 -9 -5 27 49 77 108 97 72 25 81 25 45 -2z m62 1 c-3 -13 -9 -44 -12 -70 l-7 -48 -72 0 -71 1 72 69 c76 73 99 85 90 48z m41 -51 c3 -65 -1 -73 -30 -62 -11 4 -12 18 -4 70 6 37 15 64 21 62 5 -2 11 -34 13 -70z m151 64 c-6 -2 6 -11 28 -21 21 -9 46 -31 56 -49 22 -38 15 -39 -25 -5 -35 29 -121 74 -140 74 -7 0 16 -16 52 -36 77 -41 117 -70 108 -79 -3 -3 -30 -9 -60 -12 -51 -5 -54 -4 -66 21 -6 14 -29 45 -51 69 l-40 43 75 -1 c41 0 69 -2 63 -4z m-369 -11 c0 -5 -25 -26 -55 -47 -52 -34 -57 -35 -72 -20 -16 15 -13 18 38 40 46 20 75 33 87 36 1 1 2 -3 2 -9z m483 -17 c16 -8 27 -17 24 -19 -3 -3 -27 6 -54 21 -49 26 -22 25 30 -2z m-172 -85 c9 -16 5 -18 -31 -18 -22 0 -40 1 -40 3 0 1 -3 27 -6 57 l-5 55 36 -40 c20 -22 41 -48 46 -57z m174 60 c28 -12 35 -41 9 -36 -15 3 -53 48 -41 48 3 0 18 -5 32 -12z m98 -39 c21 -17 35 -34 32 -37 -3 -3 9 -20 26 -39 l32 -32 -51 19 c-29 11 -61 20 -72 20 -11 0 -29 10 -41 21 l-21 21 20 21 21 20 36 -27 c20 -16 39 -26 42 -23 2 3 -14 18 -36 33 -23 14 -41 28 -41 30 0 11 19 1 53 -27z m-723 6 c11 -13 8 -21 -15 -45 -35 -36 -94 -58 -105 -40 -6 9 -11 7 -19 -7 -6 -12 -18 -24 -28 -27 -12 -5 -8 3 11 23 16 16 32 29 35 29 3 -1 25 17 49 40 47 47 54 49 72 27z m93 -5 c-7 -26 -15 -31 -33 -20 -13 8 -12 12 5 24 27 21 34 20 28 -4z m-17 -41 c3 -5 2 -9 -3 -9 -4 -1 -28 -5 -53 -10 l-45 -8 27 23 c26 23 61 24 74 4z m544 1 c22 -14 7 -21 -30 -13 -29 5 -31 7 -15 14 27 10 28 10 45 -1z m-357 -29 c37 -1 38 -2 35 -33 -2 -28 -8 -34 -30 -36 l-28 -3 0 -95 c0 -73 -3 -94 -14 -94 -7 0 -28 -3 -46 -7 l-33 -6 16 24 c24 33 22 100 -4 133 -11 14 -26 26 -32 26 -7 -1 -5 -6 4 -13 45 -34 53 -111 15 -146 l-23 -22 28 -29 c17 -16 30 -40 30 -57 1 -22 3 -24 6 -6 2 12 -2 34 -10 50 l-15 28 39 -3 39 -4 0 -54 c0 -51 -1 -54 -25 -54 -22 0 -25 -4 -25 -35 0 -34 1 -35 39 -35 l39 0 4 -62 c2 -35 0 -67 -4 -72 -4 -6 -8 4 -8 22 l0 32 -94 0 c-101 0 -106 3 -106 56 0 18 5 24 20 24 29 0 78 27 90 49 17 33 11 33 -19 -1 -25 -29 -35 -32 -95 -36 l-66 -4 0 31 c0 30 2 31 41 31 55 0 79 15 79 49 0 37 -32 51 -120 51 l-70 0 0 111 0 111 94 -4 c52 -1 92 0 90 4 -3 4 2 21 11 39 9 17 14 33 11 36 -3 3 -13 -11 -22 -31 -25 -51 -45 -48 -32 4 l10 39 72 -3 c39 -2 88 -4 109 -5z m238 -56 c45 -101 54 -144 37 -185 l-14 -34 -36 99 -35 100 -37 3 c-34 3 -36 5 -36 37 0 36 -4 33 78 43 7 1 26 -27 43 -63z m103 57 c38 -7 40 -10 53 -57 12 -46 34 -188 30 -191 -1 -1 -17 -5 -36 -9 -33 -7 -34 -7 -27 21 13 50 -1 22 -49 -101 -26 -66 -48 -121 -49 -122 -1 -2 -24 54 -51 122 -47 121 -62 152 -49 100 5 -22 3 -25 -20 -25 l-27 0 2 90 3 90 30 0 c30 0 32 -3 66 -103 20 -56 39 -102 44 -102 4 0 15 18 23 40 8 22 20 52 25 68 8 21 17 27 40 27 28 0 30 -2 24 -27 l-6 -28 14 25 c8 14 12 28 10 32 -9 15 -74 9 -80 -7 -8 -21 -20 -10 -27 24 -4 16 -18 53 -32 82 -14 29 -25 54 -25 56 0 5 73 2 114 -5z m-545 -34 c-5 -18 -9 -34 -9 -35 0 -2 -31 -3 -70 -3 l-70 0 -2 -82 -2 -83 -3 83 c-4 80 -5 82 -28 82 -28 0 -33 15 -9 24 8 3 13 9 11 13 -3 5 8 8 23 8 25 0 27 -2 14 -16 -28 -31 -13 -32 19 -2 31 30 53 39 109 42 25 1 26 0 17 -31z m309 -100 c2 -123 2 -128 -18 -128 -19 0 -20 6 -20 89 0 50 -4 93 -10 96 -5 3 -10 22 -10 41 0 33 2 35 28 32 l27 -3 3 -127z m394 98 c31 -9 64 -23 73 -32 15 -16 45 -78 45 -95 0 -20 -18 -7 -24 17 -4 15 -9 24 -12 22 -8 -9 18 -68 28 -62 13 8 28 -14 27 -41 0 -18 -1 -17 -15 5 -17 28 -14 15 19 -69 27 -71 33 -50 12 45 -9 42 -15 78 -12 80 11 11 76 -182 77 -228 0 -15 -30 5 -36 24 -3 11 -8 18 -10 15 -8 -8 18 -66 29 -64 7 1 12 -7 12 -18 0 -16 -8 -21 -36 -23 -40 -3 -33 -15 -90 146 -12 34 -25 62 -28 62 -7 0 -41 -87 -41 -104 0 -6 6 -2 13 8 35 48 77 -36 77 -154 0 -44 -3 -50 -20 -50 -12 0 -38 -9 -60 -20 -22 -11 -42 -20 -45 -20 -3 0 -5 9 -5 20 0 16 -7 20 -35 20 -23 0 -33 4 -31 13 3 6 7 24 10 40 5 22 12 27 35 27 26 0 32 6 47 45 9 25 14 48 11 51 -2 3 -11 -14 -19 -38 -13 -37 -19 -43 -46 -46 -18 -2 -32 1 -32 7 0 6 23 67 50 136 55 137 60 157 30 108 -11 -19 -28 -33 -39 -33 -16 0 -20 10 -26 63 -4 34 -14 82 -21 107 -7 24 -11 46 -9 48 4 4 94 -115 102 -135 3 -7 9 -13 13 -13 9 0 32 61 26 68 -3 2 -8 -7 -12 -22 -6 -24 -24 -37 -24 -17 0 5 -21 37 -46 71 -25 35 -40 61 -33 58 8 -3 40 -13 71 -22z m-930 -38 c-5 -7 -16 -32 -23 -56 -14 -48 -32 -51 -37 -5 -2 24 3 36 24 52 30 23 53 29 36 9z m480 -100 c0 -51 2 -124 2 -163 1 -65 3 -70 24 -73 16 -3 22 -10 22 -28 0 -23 -2 -24 -74 -24 -70 0 -74 1 -78 24 -4 20 0 26 16 28 20 3 21 9 24 166 l2 162 30 0 30 0 2 -92z m-527 -51 c-19 -95 -35 -134 -60 -145 -21 -10 -27 -9 -32 4 -10 25 5 99 32 160 l25 57 21 -22 c16 -17 19 -29 14 -54z m35 -47 c0 -42 -4 -59 -15 -63 -21 -9 -25 4 -13 49 5 21 11 49 12 61 3 46 16 9 16 -47z m917 0 c-12 -32 -30 -35 -35 -7 -3 15 5 21 45 36 1 1 -4 -13 -10 -29z m-47 -5 c0 -17 -5 -18 -51 -8 l-34 7 35 7 c19 3 38 7 43 8 4 0 7 -6 7 -14z m140 -14 c0 -5 3 -16 6 -24 4 -12 0 -14 -14 -10 -14 3 -18 11 -15 24 5 19 23 27 23 10z m-349 -91 c18 -49 38 -90 44 -90 6 0 22 30 35 68 l24 67 7 -35 c5 -19 11 -77 15 -127 4 -51 11 -93 17 -93 9 0 7 30 -15 203 -6 48 -9 89 -7 92 3 2 23 1 47 -2 41 -5 42 -7 42 -43 0 -20 -6 -58 -14 -83 -8 -26 -10 -47 -6 -47 10 0 -8 -71 -21 -84 -5 -6 -9 -18 -9 -27 0 -9 -14 -22 -30 -29 -35 -14 -34 -15 -47 25 -9 27 -14 30 -55 33 -44 3 -46 2 -53 -27 -6 -27 -11 -31 -41 -31 l-34 0 0 153 c0 85 3 157 7 160 3 4 19 7 34 7 25 0 29 -7 60 -90z m-111 30 c0 -43 -3 -50 -20 -50 -17 0 -20 7 -20 50 0 43 3 50 20 50 17 0 20 -7 20 -50z m-383 13 c-3 -16 -12 -70 -19 -120 -12 -92 -13 -93 -40 -93 -15 0 -31 -7 -35 -15 -7 -12 -16 -13 -44 -5 -31 9 -37 15 -46 54 -10 44 -9 45 19 57 42 17 78 69 78 111 0 34 0 35 46 37 46 1 46 1 41 -26z m43 3 c0 -13 3 -31 6 -40 5 -12 0 -16 -20 -16 -27 0 -28 10 -10 68 6 21 24 13 24 -12z m68 -16 c4 -22 -11 -40 -34 -40 -11 0 -25 66 -16 75 11 10 47 -15 50 -35z m805 -157 c-8 -50 -19 -39 -22 20 -2 47 -1 50 12 32 9 -12 12 -33 10 -52z m-1182 37 c5 0 9 -12 9 -27 l0 -26 -25 23 c-28 27 -33 45 -9 36 9 -3 20 -6 25 -6z m65 -27 c3 -16 7 -34 10 -40 4 -16 1 -16 -31 -1 -32 15 -37 68 -5 68 13 0 22 -9 26 -27z m262 -12 c2 -23 -2 -37 -12 -43 -9 -5 -16 -18 -16 -28 0 -13 -7 -20 -19 -20 -22 0 -33 41 -24 94 5 34 8 37 37 34 27 -3 31 -7 34 -37z m322 -1 c0 -40 0 -40 -40 -40 -40 0 -40 0 -40 40 0 40 0 40 40 40 40 0 40 0 40 -40z m582 9 c-19 -17 -35 -29 -37 -27 -2 2 -1 15 2 31 4 23 10 27 37 27 l31 -1 -33 -30z m-1222 -41 c0 -5 -11 -8 -25 -8 -20 0 -25 5 -25 25 0 26 0 26 25 8 13 -10 25 -21 25 -25z m1247 -2 c-3 -8 -17 -11 -36 -8 l-31 4 33 22 c32 22 46 15 34 -18z m-1156 -71 c18 -49 18 -49 0 -26 -10 14 -27 38 -36 54 -16 27 -16 29 0 25 10 -2 25 -24 36 -53z m429 20 l0 -35 -70 0 -70 0 0 -35 0 -35 60 0 c60 0 60 0 60 -30 0 -30 0 -30 -60 -30 l-60 0 0 -35 0 -35 75 0 75 0 0 -35 c0 -21 -5 -35 -12 -36 -7 -1 -2 -5 12 -10 17 -6 9 -7 -25 -2 -27 3 -57 5 -65 4 -32 -3 -86 -1 -112 5 l-28 6 0 169 0 169 110 0 110 0 0 -35z m126 -20 c6 -27 12 -44 13 -37 0 6 12 12 26 12 24 0 26 -2 19 -37 -16 -86 -20 -92 -28 -40 -4 27 -10 46 -13 43 -3 -3 0 -35 7 -71 7 -36 14 -64 16 -62 2 2 11 39 19 83 32 162 33 164 75 164 37 0 39 -2 45 -40 4 -22 10 -38 15 -35 5 3 15 2 24 -1 12 -4 16 -20 16 -55 0 -62 -16 -64 -25 -3 -3 25 -9 44 -11 41 -7 -6 16 -127 27 -147 6 -11 8 -8 9 11 0 14 9 68 20 119 11 51 20 97 20 102 0 4 18 8 41 8 40 0 41 0 35 -32 -3 -18 -3 -27 0 -20 3 6 12 12 20 12 11 0 13 -7 8 -27 -9 -38 -13 -41 -28 -21 -11 15 -17 3 -41 -87 -15 -58 -26 -108 -23 -110 5 -6 48 151 48 174 0 8 6 11 16 7 9 -3 18 -6 20 -6 2 0 4 -9 4 -20 0 -12 11 -32 25 -46 24 -24 24 -26 9 -49 -9 -14 -20 -25 -25 -25 -5 0 -9 -6 -9 -13 0 -18 -53 -67 -72 -67 -9 0 -18 6 -21 13 -2 6 -3 4 -2 -5 2 -14 -4 -18 -26 -18 -36 0 -32 0 -69 -10 -29 -8 -42 2 -20 15 6 3 10 16 10 28 0 18 -4 15 -19 -13 -10 -19 -25 -34 -32 -33 -8 1 -40 4 -71 8 -58 6 -58 6 -68 48 -6 23 -15 53 -21 67 l-9 25 5 -25 c3 -14 8 -44 11 -67 7 -43 7 -43 -25 -43 l-31 0 0 109 c0 61 -4 112 -9 115 -4 3 -7 -47 -6 -112 2 -64 1 -98 -2 -74 l-4 42 -65 0 c-44 0 -64 4 -64 13 0 8 -3 8 -9 -2 -7 -10 -9 -7 -8 12 2 26 4 27 60 27 l57 0 0 40 0 40 -60 0 c-57 0 -60 1 -60 25 0 24 2 25 68 25 102 0 107 -3 122 -68 7 -31 15 -51 17 -44 3 7 -5 45 -17 85 -11 39 -24 80 -26 90 -5 16 0 18 37 15 43 -3 43 -3 55 -53z m-498 25 c8 0 12 -22 12 -77 -1 -72 -2 -76 -15 -53 -9 18 -10 29 -3 37 8 10 6 13 -5 13 -8 0 -22 18 -31 40 -21 52 -20 53 7 46 12 -3 28 -6 35 -6z m141 -182 c-1 -127 -2 -131 -15 -93 -10 27 -13 31 -10 13 1 -15 0 -26 -3 -23 -4 2 -8 53 -9 113 -2 98 -1 111 15 115 10 3 19 5 21 6 1 0 2 -59 1 -131z m821 8 c0 -20 -22 -56 -35 -56 -18 0 -19 14 -3 40 11 17 38 28 38 16z m50 -25 c13 -25 13 -31 -1 -31 -5 0 -7 6 -3 13 6 10 4 10 -7 0 -7 -7 -21 -13 -31 -13 -15 0 -16 3 -6 25 13 30 33 32 48 6z m-132 -133 c-17 -34 -148 -111 -228 -134 -22 -6 -23 -5 -12 9 8 9 36 30 63 48 42 27 51 29 66 18 14 -12 15 -11 9 7 -5 17 2 29 29 53 20 17 40 31 45 31 6 0 10 8 10 18 0 12 4 11 14 -8 8 -16 10 -31 4 -42z m-673 1 c15 0 13 -3 -8 -11 -24 -8 -32 -7 -45 7 -16 17 -15 17 8 11 14 -3 34 -6 45 -7z m568 -11 c-20 -19 -25 -20 -50 -8 l-28 13 25 8 c14 4 36 7 50 8 l24 1 -21 -22z m-456 -25 c9 -16 35 -47 57 -70 22 -24 34 -43 27 -43 -34 0 -211 101 -211 121 0 9 30 16 77 18 25 1 36 -5 50 -26z m353 17 c13 -8 -7 -57 -33 -78 -22 -19 -98 -44 -140 -47 l-37 -3 6 52 c8 71 9 74 41 79 46 7 150 5 163 -3z m-560 -63 c0 -5 -18 4 -40 20 -22 15 -40 31 -40 35 0 11 79 -45 80 -55z m294 12 c4 -28 5 -53 3 -56 -5 -4 -77 90 -77 101 0 3 15 6 34 6 33 0 34 -1 40 -51z m52 14 c-3 -21 -6 -51 -6 -66 0 -18 -4 -27 -12 -25 -8 3 -15 30 -18 66 -5 60 -4 62 19 62 22 0 23 -3 17 -37z m269 17 c3 -5 -8 -16 -25 -25 l-30 -15 12 25 c11 25 32 33 43 15z m-429 -79 c66 -34 59 -39 -22 -15 -39 11 -61 25 -79 48 -34 45 -31 53 8 23 19 -14 60 -39 93 -56z m-122 44 c19 -28 17 -30 -19 -13 -14 6 -25 17 -25 25 0 22 27 15 44 -12z m43 -54 c12 -7 13 -10 5 -11 -18 0 -81 30 -88 42 -6 9 50 -12 83 -31z"/> <path d="M1150 1760 l0 -50 48 0 c51 0 82 20 82 53 0 25 -40 47 -87 47 l-43 0 0 -50z m55 8 c-9 -42 -13 -48 -31 -48 -10 0 -14 12 -14 40 0 36 2 40 26 40 24 0 25 -2 19 -32z m61 -1 c4 -14 1 -25 -12 -34 -23 -16 -45 -17 -40 0 3 6 7 24 10 39 7 31 31 29 42 -5z"/> <path d="M1667 1244 c-4 -16 -9 -47 -11 -69 -5 -36 -4 -35 8 10 l13 50 6 -32 c4 -18 10 -47 13 -64 3 -17 8 -28 11 -26 6 6 -16 127 -27 146 -5 10 -9 6 -13 -15z"/> <path d="M1605 949 c-33 -34 -51 -57 -39 -51 35 18 120 112 101 112 -1 0 -29 -28 -62 -61z"/> <path d="M490 1840 l0 -40 79 0 c70 0 82 -3 95 -22 11 -15 12 -26 5 -40 -8 -15 -22 -18 -94 -18 l-85 0 0 -120 0 -120 40 0 40 0 0 75 c0 66 2 75 18 75 14 0 29 -21 53 -75 l34 -74 47 -1 48 0 -18 37 c-9 21 -27 58 -38 83 l-22 45 30 25 c41 34 49 109 19 158 -12 17 -26 32 -32 32 -6 0 1 -14 15 -31 17 -20 26 -43 26 -64 0 -33 -18 -85 -29 -85 -3 0 -14 -7 -24 -14 -18 -14 -17 -18 17 -92 20 -42 36 -78 36 -80 0 -2 -15 -4 -33 -4 -32 0 -35 3 -70 81 -32 69 -40 80 -60 77 -20 -3 -22 -9 -25 -80 l-3 -78 -29 0 -30 0 0 110 0 110 79 0 c105 0 140 31 91 80 -16 16 -33 20 -95 20 l-75 0 0 31 0 31 95 -4 c52 -2 89 0 82 4 -6 4 -51 8 -99 8 l-88 0 0 -40z"/> <path d="M2193 1873 c35 -4 42 -11 130 -135 l92 -131 3 131 3 131 37 4 37 4 -42 1 -42 2 -3 -121 -3 -121 -84 121 -85 121 -40 -2 -41 -1 38 -4z"/> <path d="M2019 1311 c7 -5 10 -14 6 -21 -6 -9 -10 -9 -17 1 -7 11 -8 9 -6 -6 2 -11 12 -21 23 -23 16 -2 20 4 22 28 2 25 -1 30 -20 30 -16 0 -18 -3 -8 -9z"/> </g> </svg> 