 <svg  version="1.0" xmlns="http://www.w3.org/2000/svg"  width="231.000000pt" height="211.000000pt" viewBox="0 0 231.000000 211.000000"  preserveAspectRatio="xMidYMid meet">  <g transform="translate(0.000000,211.000000) scale(0.050000,-0.050000)" fill="#c01c28" stroke="none"> <path d="M1945 3640 c-1384 -363 -1590 -2242 -315 -2885 1217 -614 2595 581 2159 1871 -256 760 -1081 1214 -1844 1014z m635 -563 c465 -218 469 -819 7 -1060 -86 -45 -126 -112 -140 -234 l-13 -103 -127 0 c-142 0 -137 -7 -128 180 10 175 106 314 289 417 293 165 223 521 -112 576 -138 22 -278 -48 -376 -191 l-30 -44 -110 38 c-127 44 -141 75 -80 173 172 279 525 386 820 248z m-180 -1567 c176 -91 108 -370 -90 -370 -195 0 -266 276 -94 369 70 38 112 38 184 1z"/> </g> </svg> 