<?xml version="1.0" standalone="no"?>
<!DOCTYPE svg PUBLIC "-//W3C//DTD SVG 20010904//EN"
 "http://www.w3.org/TR/2001/REC-SVG-20010904/DTD/svg10.dtd">
<svg version="1.0" xmlns="http://www.w3.org/2000/svg"
 width="196.000000pt" height="161.000000pt" viewBox="0 0 196.000000 161.000000"
 preserveAspectRatio="xMidYMid meet">
<metadata>
Created by potrace 1.10, written by Peter Selinger 2001-2011
</metadata>
<g transform="translate(0.000000,161.000000) scale(0.100000,-0.100000)"
fill="#cac6c6" stroke="none">
<path d="M791 1361 c-10 -10 -22 -38 -26 -62 -11 -72 -14 -76 -70 -99 l-55
-22 -54 36 c-30 20 -62 36 -71 36 -27 0 -135 -109 -135 -137 0 -14 16 -48 35
-77 l35 -52 -23 -57 -22 -56 -63 -12 c-84 -15 -96 -33 -90 -134 2 -41 9 -80
15 -86 6 -6 40 -17 74 -23 l63 -11 24 -57 25 -57 -37 -53 c-20 -29 -36 -61
-36 -71 0 -27 112 -137 139 -137 13 0 46 16 73 36 l49 37 57 -25 56 -24 13
-64 c7 -35 18 -69 24 -75 5 -5 45 -11 87 -13 100 -5 118 8 134 95 l11 63 49
16 c26 8 50 20 54 25 3 5 22 -3 42 -19 45 -35 76 -52 95 -52 20 0 137 116 137
136 0 20 -16 51 -52 96 -16 20 -24 39 -19 42 5 4 17 28 25 54 l16 49 63 11
c87 16 100 34 95 134 -2 42 -8 82 -13 87 -6 6 -40 17 -75 24 l-64 13 -24 56
-24 56 36 52 c20 29 36 61 36 73 0 28 -110 137 -140 137 -12 0 -44 -16 -71
-36 l-50 -36 -57 23 c-31 12 -58 23 -60 24 -1 1 -7 28 -13 61 -14 81 -31 94
-125 94 -59 0 -78 -4 -93 -19z m177 -24 c6 -7 14 -37 18 -67 7 -61 18 -80 43
-80 9 0 34 -9 56 -20 52 -27 59 -26 112 15 25 19 53 35 62 35 19 0 111 -89
111 -108 0 -8 -16 -37 -35 -63 -41 -57 -42 -66 -15 -116 11 -21 20 -45 20 -55
0 -23 23 -34 90 -42 30 -4 58 -13 62 -19 4 -7 8 -44 8 -84 0 -81 1 -80 -94
-92 -29 -3 -52 -12 -56 -21 -4 -8 -19 -40 -33 -71 l-25 -56 38 -54 c22 -30 40
-61 40 -69 0 -19 -90 -110 -110 -110 -8 0 -39 18 -69 40 l-54 38 -56 -25 c-31
-14 -63 -29 -71 -33 -9 -4 -18 -29 -22 -65 -11 -81 -17 -86 -107 -83 l-76 3
-11 66 c-12 75 -19 89 -42 89 -10 0 -34 9 -55 20 -49 27 -57 26 -110 -15 -25
-19 -54 -35 -64 -35 -20 0 -113 88 -113 107 0 7 18 38 40 69 39 56 40 58 23
83 -9 14 -22 44 -28 66 -13 42 -16 44 -115 62 l-45 8 -3 73 c-2 43 2 79 8 87
6 7 36 16 68 20 62 8 82 18 82 44 0 9 9 34 20 56 26 52 26 54 -15 108 -19 25
-35 54 -35 64 0 20 88 113 107 113 7 0 37 -18 68 -39 l56 -40 46 25 c25 13 54
24 64 24 24 0 28 9 40 82 6 34 12 65 15 70 9 14 150 10 162 -5z"/>
<path d="M797 986 c-55 -21 -103 -61 -134 -114 -24 -41 -28 -58 -28 -127 0
-92 16 -135 73 -190 68 -65 156 -88 253 -65 44 11 64 24 110 69 64 65 86 126
76 213 -16 132 -108 218 -241 225 -45 2 -85 -2 -109 -11z m193 -36 c141 -71
174 -264 64 -374 -88 -88 -241 -88 -328 0 -47 47 -66 96 -66 166 0 172 178
284 330 208z"/>
</g>
</svg>
